<svg width="24" height="27" viewBox="0 0 24 27" fill="none" xmlns="http://www.w3.org/2000/svg">
<path d="M16.1 17.08C16.556 15.928 16.784 14.824 16.784 13.768C16.784 13.432 16.568 13.24 16.136 13.192L14.984 13.12V10.312H22.58V13.228L20.6 13.3C20.6 15.604 20.096 17.716 19.088 19.636C20.168 20.548 21.68 21.7 23.624 23.092L21.248 26.224C19.808 25.264 18.296 24.136 16.712 22.84C14.936 24.616 12.536 25.504 9.512 25.504C6.488 25.504 4.28 24.796 2.888 23.38C1.496 21.964 0.8 20.236 0.8 18.196C0.8 15.028 2.264 12.532 5.192 10.708C4.448 9.484 4.076 8.164 4.076 6.748C4.076 4.924 4.688 3.448 5.912 2.32C7.136 1.192 8.852 0.627998 11.06 0.627998C13.292 0.627998 15.464 1.12 17.576 2.104V7.54L13.904 7.792V5.596C13.904 4.924 13.652 4.504 13.148 4.336C12.5 4.144 11.864 4.048 11.24 4.048C9.296 4.048 8.324 4.972 8.324 6.82C8.324 9.268 10.916 12.688 16.1 17.08ZM13.688 20.32C10.808 17.872 8.636 15.664 7.172 13.696C5.708 14.728 4.976 16.132 4.976 17.908C4.976 19.132 5.348 20.128 6.092 20.896C6.86 21.64 8.06 22.012 9.692 22.012C11.348 22.012 12.68 21.448 13.688 20.32Z" fill="black"/>
</svg>
