<svg width="215" height="64" viewBox="0 0 215 64" fill="none" xmlns="http://www.w3.org/2000/svg">
<path d="M207.351 64H7.53137C3.37948 64 0 60.5952 0 56.4272V7.5616C0 3.392 3.37948 0 7.53137 0H207.351C211.501 0 215 3.392 215 7.5616V56.4272C215 60.5952 211.501 64 207.351 64Z" fill="#A6A6A6"/>
<path d="M213.458 56.4288C213.458 59.8144 210.729 62.5568 207.352 62.5568H7.53138C4.15668 62.5568 1.41742 59.8144 1.41742 56.4288V7.56001C1.41742 4.17601 4.15668 1.42401 7.53138 1.42401H207.351C210.729 1.42401 213.457 4.17601 213.457 7.56001L213.458 56.4288Z" fill="black"/>
<path d="M47.9816 31.6544C47.9354 26.4976 52.1845 23.9888 52.3788 23.872C49.9724 20.3472 46.2425 19.8656 44.9318 19.8272C41.7992 19.496 38.7605 21.7104 37.1647 21.7104C35.5371 21.7104 33.0797 19.8592 30.4313 19.9136C27.0231 19.9664 23.8347 21.9488 22.0861 25.0272C18.4773 31.304 21.1687 40.528 24.6263 45.6016C26.3558 48.0864 28.3768 50.8608 31.0221 50.7632C33.6101 50.656 34.5768 49.1056 37.6998 49.1056C40.7943 49.1056 41.702 50.7632 44.3999 50.7008C47.1774 50.656 48.926 48.2048 50.5951 45.6976C52.5938 42.8496 53.3964 40.0448 53.4283 39.9008C53.363 39.8784 48.0342 37.8352 47.9816 31.6544Z" fill="white"/>
<path d="M42.8853 16.4896C44.2773 14.7408 45.2296 12.3616 44.9653 9.9472C42.9506 10.0368 40.4311 11.3472 38.9803 13.0576C37.6967 14.5648 36.55 17.0352 36.8462 19.3584C39.1093 19.528 41.4329 18.2112 42.8853 16.4896Z" fill="white"/>
<path d="M85.4346 50.4064H81.8179L79.8367 44.152H72.9503L71.0631 50.4064H67.5419L74.3645 29.1136H78.5785L85.4346 50.4064ZM79.2395 41.528L77.4478 35.968C77.2583 35.4 76.9031 34.0624 76.3792 31.9568H76.3154C76.1068 32.8624 75.7708 34.2 75.3089 35.968L73.5491 41.528H79.2395Z" fill="white"/>
<path d="M102.98 42.5408C102.98 45.152 102.278 47.216 100.873 48.7312C99.6151 50.08 98.0528 50.7536 96.1878 50.7536C94.1748 50.7536 92.7287 50.0272 91.848 48.5744H91.7843V56.6624H88.3889V40.1072C88.3889 38.4656 88.3459 36.7808 88.2631 35.0528H91.2492L91.4387 37.4864H91.5024C92.6348 35.6528 94.3532 34.7376 96.6592 34.7376C98.4621 34.7376 99.9671 35.4528 101.171 36.8848C102.378 38.3184 102.98 40.2032 102.98 42.5408ZM99.5211 42.6656C99.5211 41.1712 99.1867 39.9392 98.5146 38.9696C97.7804 37.9584 96.7946 37.4528 95.5587 37.4528C94.721 37.4528 93.9598 37.7344 93.2797 38.2896C92.5981 38.8496 92.1522 39.5808 91.9436 40.4864C91.8385 40.9088 91.7859 41.2544 91.7859 41.5264V44.0864C91.7859 45.2032 92.1267 46.1456 92.8083 46.9152C93.49 47.6848 94.3755 48.0688 95.4648 48.0688C96.7436 48.0688 97.739 47.5728 98.4509 46.584C99.1644 45.5936 99.5211 44.288 99.5211 42.6656Z" fill="white"/>
<path d="M120.558 42.5408C120.558 45.152 119.855 47.216 118.449 48.7312C117.193 50.08 115.63 50.7536 113.765 50.7536C111.752 50.7536 110.306 50.0272 109.427 48.5744H109.363V56.6624H105.968V40.1072C105.968 38.4656 105.925 36.7808 105.842 35.0528H108.828L109.018 37.4864H109.081C110.212 35.6528 111.931 34.7376 114.238 34.7376C116.039 34.7376 117.544 35.4528 118.752 36.8848C119.954 38.3184 120.558 40.2032 120.558 42.5408ZM117.099 42.6656C117.099 41.1712 116.763 39.9392 116.09 38.9696C115.356 37.9584 114.374 37.4528 113.136 37.4528C112.297 37.4528 111.537 37.7344 110.856 38.2896C110.174 38.8496 109.73 39.5808 109.521 40.4864C109.417 40.9088 109.363 41.2544 109.363 41.5264V44.0864C109.363 45.2032 109.704 46.1456 110.383 46.9152C111.064 47.6832 111.95 48.0688 113.042 48.0688C114.321 48.0688 115.316 47.5728 116.028 46.584C116.742 45.5936 117.099 44.288 117.099 42.6656Z" fill="white"/>
<path d="M140.21 44.4352C140.21 46.2464 139.584 47.72 138.328 48.8576C136.947 50.1008 135.025 50.7216 132.555 50.7216C130.274 50.7216 128.446 50.28 127.062 49.3952L127.849 46.552C129.339 47.4576 130.975 47.912 132.757 47.912C134.036 47.912 135.031 47.6208 135.746 47.0416C136.458 46.4624 136.813 45.6848 136.813 44.7152C136.813 43.8512 136.52 43.1232 135.933 42.5328C135.348 41.9424 134.372 41.3936 133.009 40.8864C129.298 39.496 127.444 37.4592 127.444 34.7808C127.444 33.0304 128.094 31.5952 129.395 30.4784C130.691 29.36 132.421 28.8016 134.584 28.8016C136.512 28.8016 138.114 29.1392 139.393 29.8128L138.544 32.5936C137.35 31.9408 135.999 31.6144 134.488 31.6144C133.294 31.6144 132.36 31.9104 131.691 32.4992C131.126 33.0256 130.843 33.6672 130.843 34.4272C130.843 35.2688 131.166 35.9648 131.816 36.512C132.381 37.0176 133.408 37.5648 134.899 38.1552C136.722 38.8928 138.062 39.7552 138.923 40.744C139.782 41.7296 140.21 42.9632 140.21 44.4352Z" fill="white"/>
<path d="M151.436 37.6128H147.694V45.0672C147.694 46.9632 148.353 47.9104 149.675 47.9104C150.282 47.9104 150.785 47.8576 151.183 47.752L151.277 50.3424C150.608 50.5936 149.728 50.72 148.637 50.72C147.296 50.72 146.248 50.3088 145.491 49.488C144.738 48.6656 144.359 47.2864 144.359 45.3488V37.6096H142.129V35.0496H144.359V32.2384L147.694 31.2272V35.0496H151.436V37.6128Z" fill="white"/>
<path d="M168.323 42.6032C168.323 44.9632 167.651 46.9008 166.31 48.416C164.903 49.976 163.037 50.7536 160.71 50.7536C158.468 50.7536 156.682 50.0064 155.351 48.512C154.02 47.0176 153.354 45.1312 153.354 42.8576C153.354 40.4784 154.039 38.5296 155.413 37.0144C156.784 35.4976 158.635 34.7392 160.962 34.7392C163.204 34.7392 165.009 35.4864 166.37 36.9824C167.673 38.4336 168.323 40.3072 168.323 42.6032ZM164.8 42.7136C164.8 41.2976 164.499 40.0832 163.889 39.0704C163.177 37.8448 162.159 37.2336 160.841 37.2336C159.476 37.2336 158.439 37.8464 157.727 39.0704C157.117 40.0848 156.816 41.3184 156.816 42.7776C156.816 44.1936 157.117 45.408 157.727 46.4192C158.461 47.6448 159.487 48.256 160.81 48.256C162.107 48.256 163.124 47.632 163.859 46.3872C164.485 45.3552 164.8 44.128 164.8 42.7136Z" fill="white"/>
<path d="M179.359 38.0528C179.023 37.9904 178.665 37.9584 178.289 37.9584C177.095 37.9584 176.171 38.4112 175.521 39.3184C174.956 40.1184 174.672 41.1296 174.672 42.3504V50.4064H171.279L171.31 39.888C171.31 38.1184 171.267 36.5072 171.183 35.0544H174.14L174.265 37.992H174.359C174.717 36.9824 175.282 36.1696 176.056 35.56C176.813 35.0112 177.63 34.7376 178.511 34.7376C178.824 34.7376 179.108 34.76 179.359 34.8V38.0528Z" fill="white"/>
<path d="M194.545 42.0032C194.545 42.6144 194.505 43.1296 194.421 43.5504H184.234C184.274 45.0672 184.766 46.2272 185.712 47.0272C186.571 47.7424 187.681 48.1008 189.044 48.1008C190.552 48.1008 191.928 47.8592 193.166 47.3744L193.698 49.7424C192.251 50.376 190.544 50.6912 188.574 50.6912C186.204 50.6912 184.344 49.9904 182.991 48.5904C181.64 47.1904 180.963 45.3104 180.963 42.952C180.963 40.6368 181.592 38.7088 182.852 37.1712C184.171 35.5296 185.953 34.7088 188.195 34.7088C190.398 34.7088 192.065 35.5296 193.197 37.1712C194.094 38.4752 194.545 40.088 194.545 42.0032ZM191.307 41.1184C191.329 40.1072 191.108 39.2336 190.648 38.496C190.06 37.5472 189.157 37.0736 187.942 37.0736C186.832 37.0736 185.929 37.536 185.239 38.464C184.674 39.2016 184.338 40.0864 184.234 41.1168H191.307V41.1184Z" fill="white"/>
<path d="M78.1167 16.0144C78.1167 17.8976 77.5545 19.3152 76.4317 20.2672C75.3917 21.1456 73.9138 21.5856 71.9995 21.5856C71.0503 21.5856 70.2381 21.544 69.5581 21.4608V11.1712C70.4451 11.0272 71.4007 10.9536 72.4327 10.9536C74.2562 10.9536 75.6306 11.352 76.5575 12.1488C77.5959 13.0496 78.1167 14.3376 78.1167 16.0144ZM76.3569 16.0608C76.3569 14.84 76.0352 13.904 75.3917 13.2512C74.7483 12.6 73.8087 12.2736 72.5713 12.2736C72.0457 12.2736 71.5982 12.3088 71.2271 12.3824V20.2048C71.4326 20.2368 71.8084 20.2512 72.3547 20.2512C73.6319 20.2512 74.6177 19.8944 75.3121 19.1808C76.0065 18.4672 76.3569 17.4272 76.3569 16.0608Z" fill="white"/>
<path d="M87.4477 17.6592C87.4477 18.8192 87.118 19.7696 86.4587 20.5152C85.7675 21.2816 84.8517 21.664 83.7083 21.664C82.6062 21.664 81.7287 21.2976 81.0741 20.5616C80.4212 19.8272 80.0947 18.9008 80.0947 17.784C80.0947 16.616 80.4307 15.6576 81.106 14.9136C81.7812 14.1696 82.689 13.7968 83.8325 13.7968C84.9346 13.7968 85.82 14.1632 86.4905 14.8976C87.1276 15.6112 87.4477 16.5328 87.4477 17.6592ZM85.7165 17.7136C85.7165 17.0176 85.5668 16.4208 85.269 15.9232C84.9186 15.3216 84.4202 15.0208 83.772 15.0208C83.1015 15.0208 82.5919 15.3216 82.2415 15.9232C81.9421 16.4208 81.794 17.0272 81.794 17.744C81.794 18.44 81.9437 19.0368 82.2415 19.5344C82.603 20.136 83.1063 20.4368 83.756 20.4368C84.3931 20.4368 84.8931 20.1312 85.2531 19.5184C85.562 19.0112 85.7165 18.4096 85.7165 17.7136Z" fill="white"/>
<path d="M99.9591 13.9504L97.61 21.4928H96.0811L95.108 18.2176C94.8612 17.4 94.6605 16.5872 94.5044 15.7808H94.4742C94.3293 16.6096 94.1286 17.4208 93.8706 18.2176L92.837 21.4928H91.2906L89.0817 13.9504H90.7969L91.6457 17.536C91.8512 18.384 92.02 19.192 92.1554 19.9568H92.1856C92.3099 19.3264 92.5153 18.5232 92.8051 17.552L93.8706 13.952H95.2307L96.2515 17.4752C96.4984 18.3344 96.699 19.1616 96.8535 19.9584H96.8997C97.0128 19.1824 97.1832 18.3552 97.4093 17.4752L98.3203 13.952H99.9591V13.9504Z" fill="white"/>
<path d="M108.612 21.4928H106.943V17.1728C106.943 15.8416 106.439 15.176 105.43 15.176C104.934 15.176 104.535 15.3584 104.224 15.7248C103.917 16.0912 103.761 16.5232 103.761 17.0176V21.4912H102.092V16.1056C102.092 15.4432 102.071 14.7248 102.031 13.9472H103.498L103.576 15.1264H103.622C103.816 14.76 104.106 14.4576 104.487 14.216C104.939 13.9344 105.446 13.792 106 13.792C106.701 13.792 107.283 14.0192 107.747 14.4752C108.323 15.0336 108.612 15.8672 108.612 16.9744V21.4928Z" fill="white"/>
<path d="M113.214 21.4928H111.547V10.4896H113.214V21.4928Z" fill="white"/>
<path d="M123.041 17.6592C123.041 18.8192 122.711 19.7696 122.052 20.5152C121.36 21.2816 120.443 21.664 119.301 21.664C118.197 21.664 117.32 21.2976 116.667 20.5616C116.014 19.8272 115.688 18.9008 115.688 17.784C115.688 16.616 116.024 15.6576 116.699 14.9136C117.374 14.1696 118.282 13.7968 119.424 13.7968C120.527 13.7968 121.411 14.1632 122.083 14.8976C122.72 15.6112 123.041 16.5328 123.041 17.6592ZM121.308 17.7136C121.308 17.0176 121.158 16.4208 120.86 15.9232C120.511 15.3216 120.011 15.0208 119.365 15.0208C118.693 15.0208 118.183 15.3216 117.834 15.9232C117.535 16.4208 117.387 17.0272 117.387 17.744C117.387 18.44 117.537 19.0368 117.834 19.5344C118.196 20.136 118.699 20.4368 119.349 20.4368C119.986 20.4368 120.484 20.1312 120.844 19.5184C121.155 19.0112 121.308 18.4096 121.308 17.7136Z" fill="white"/>
<path d="M131.118 21.4928H129.62L129.495 20.624H129.449C128.936 21.3168 128.205 21.664 127.256 21.664C126.547 21.664 125.974 21.4352 125.542 20.9808C125.151 20.568 124.955 20.0544 124.955 19.4448C124.955 18.5232 125.337 17.8208 126.106 17.3344C126.874 16.848 127.954 16.6096 129.344 16.6208V16.48C129.344 15.4864 128.825 14.9904 127.785 14.9904C127.044 14.9904 126.391 15.1776 125.828 15.5488L125.488 14.448C126.186 14.0144 127.047 13.7968 128.064 13.7968C130.026 13.7968 131.01 14.8368 131.01 16.9168V19.6944C131.01 20.448 131.046 21.048 131.118 21.4928ZM129.385 18.9008V17.7376C127.544 17.7056 126.624 18.2128 126.624 19.2576C126.624 19.6512 126.729 19.9456 126.944 20.1424C127.159 20.3392 127.433 20.4368 127.759 20.4368C128.126 20.4368 128.468 20.32 128.78 20.088C129.094 19.8544 129.287 19.5584 129.358 19.1952C129.376 19.1136 129.385 19.0144 129.385 18.9008Z" fill="white"/>
<path d="M140.602 21.4928H139.121L139.043 20.2816H138.997C138.524 21.2032 137.718 21.664 136.586 21.664C135.681 21.664 134.928 21.3072 134.33 20.5936C133.733 19.88 133.435 18.9536 133.435 17.816C133.435 16.5952 133.759 15.6064 134.408 14.8512C135.038 14.1472 135.808 13.7952 136.726 13.7952C137.734 13.7952 138.439 14.136 138.841 14.8192H138.872V10.4896H140.543V19.4608C140.543 20.1952 140.562 20.872 140.602 21.4928ZM138.872 18.312V17.0544C138.872 16.8368 138.857 16.6608 138.826 16.5264C138.732 16.1232 138.53 15.784 138.223 15.5104C137.912 15.2368 137.538 15.0992 137.106 15.0992C136.484 15.0992 135.996 15.3472 135.638 15.8448C135.283 16.3424 135.103 16.9776 135.103 17.7536C135.103 18.4992 135.273 19.104 135.616 19.5696C135.977 20.0656 136.464 20.3136 137.074 20.3136C137.622 20.3136 138.06 20.1072 138.393 19.6928C138.715 19.3104 138.872 18.8496 138.872 18.312Z" fill="white"/>
<path d="M154.876 17.6592C154.876 18.8192 154.547 19.7696 153.887 20.5152C153.196 21.2816 152.282 21.664 151.137 21.664C150.037 21.664 149.159 21.2976 148.503 20.5616C147.85 19.8272 147.523 18.9008 147.523 17.784C147.523 16.616 147.859 15.6576 148.535 14.9136C149.21 14.1696 150.118 13.7968 151.263 13.7968C152.363 13.7968 153.25 14.1632 153.919 14.8976C154.556 15.6112 154.876 16.5328 154.876 17.6592ZM153.147 17.7136C153.147 17.0176 152.997 16.4208 152.699 15.9232C152.347 15.3216 151.851 15.0208 151.201 15.0208C150.532 15.0208 150.022 15.3216 149.67 15.9232C149.371 16.4208 149.223 17.0272 149.223 17.744C149.223 18.44 149.372 19.0368 149.67 19.5344C150.032 20.136 150.535 20.4368 151.185 20.4368C151.822 20.4368 152.324 20.1312 152.683 19.5184C152.991 19.0112 153.147 18.4096 153.147 17.7136Z" fill="white"/>
<path d="M163.851 21.4928H162.183V17.1728C162.183 15.8416 161.68 15.176 160.669 15.176C160.173 15.176 159.774 15.3584 159.465 15.7248C159.156 16.0912 159.001 16.5232 159.001 17.0176V21.4912H157.331V16.1056C157.331 15.4432 157.312 14.7248 157.272 13.9472H158.737L158.815 15.1264H158.861C159.057 14.76 159.347 14.4576 159.726 14.216C160.18 13.9344 160.685 13.792 161.24 13.792C161.94 13.792 162.522 14.0192 162.986 14.4752C163.564 15.0336 163.851 15.8672 163.851 16.9744V21.4928Z" fill="white"/>
<path d="M175.083 15.2064H173.245V18.8704C173.245 19.8016 173.572 20.2672 174.218 20.2672C174.518 20.2672 174.766 20.2416 174.962 20.1888L175.005 21.4608C174.676 21.5856 174.242 21.648 173.709 21.648C173.05 21.648 172.537 21.4464 172.166 21.0432C171.793 20.64 171.608 19.9616 171.608 19.0096V15.2064H170.511V13.9504H171.608V12.568L173.244 12.072V13.9488H175.082V15.2064H175.083Z" fill="white"/>
<path d="M183.919 21.4928H182.248V17.2048C182.248 15.8528 181.745 15.176 180.737 15.176C179.963 15.176 179.434 15.568 179.144 16.352C179.095 16.5168 179.066 16.7184 179.066 16.9552V21.4912H177.399V10.4896H179.066V15.0352H179.098C179.624 14.208 180.377 13.7952 181.353 13.7952C182.044 13.7952 182.616 14.0224 183.07 14.4784C183.635 15.0464 183.919 15.8912 183.919 17.008V21.4928Z" fill="white"/>
<path d="M193.033 17.3648C193.033 17.6656 193.011 17.9184 192.971 18.1248H187.966C187.988 18.8704 188.227 19.4384 188.69 19.832C189.114 20.184 189.66 20.36 190.329 20.36C191.07 20.36 191.745 20.2416 192.353 20.0032L192.615 21.168C191.903 21.4784 191.065 21.6336 190.095 21.6336C188.932 21.6336 188.017 21.2896 187.354 20.6016C186.688 19.9136 186.359 18.9904 186.359 17.832C186.359 16.6944 186.666 15.7472 187.286 14.992C187.932 14.1856 188.807 13.7824 189.91 13.7824C190.99 13.7824 191.81 14.1856 192.364 14.992C192.812 15.632 193.033 16.424 193.033 17.3648ZM191.441 16.9312C191.454 16.4336 191.344 16.0048 191.117 15.6432C190.828 15.1776 190.386 14.944 189.789 14.944C189.245 14.944 188.8 15.1712 188.461 15.6272C188.184 15.9904 188.02 16.424 187.966 16.9312H191.441Z" fill="white"/>
</svg>
