<svg width="150" height="64" viewBox="0 0 150 64" fill="none" xmlns="http://www.w3.org/2000/svg">
<path d="M141.737 6.35593H17.7966C16.7435 6.35593 15.8899 7.20962 15.8899 8.26271V18.4322C15.8899 19.4853 15.0362 20.339 13.9831 20.339H8.26274C7.20965 20.339 6.35596 21.1927 6.35596 22.2458V40.678C6.35596 41.731 7.20965 42.5847 8.26274 42.5847H13.9831C15.0362 42.5847 15.8899 43.4384 15.8899 44.4915V55.2966C15.8899 56.3497 16.7435 57.2034 17.7966 57.2034H141.737C142.79 57.2034 143.644 56.3497 143.644 55.2966V8.26271C143.644 7.20962 142.79 6.35593 141.737 6.35593Z" fill="#6FD786"/>
<path fill-rule="evenodd" clip-rule="evenodd" d="M17.7966 0H141.737C146.301 0 150 3.69935 150 8.26271V55.2966C150 59.86 146.301 63.5593 141.737 63.5593H17.7966C13.2332 63.5593 9.5339 59.86 9.5339 55.2966V48.9407H8.26271C3.69934 48.9407 0 45.2413 0 40.678V22.2458C0 17.6824 3.69934 13.9831 8.26271 13.9831H9.5339V8.26271C9.5339 3.69934 13.2332 0 17.7966 0ZM17.7966 6.35593H141.737C142.79 6.35593 143.644 7.20963 143.644 8.26271V55.2966C143.644 56.3497 142.79 57.2034 141.737 57.2034H17.7966C16.7435 57.2034 15.8898 56.3497 15.8898 55.2966V44.4915C15.8898 43.4384 15.0361 42.5847 13.9831 42.5847H8.26271C7.20963 42.5847 6.35593 41.7311 6.35593 40.678V22.2458C6.35593 21.1927 7.20963 20.339 8.26271 20.339H13.9831C15.0361 20.339 15.8898 19.4853 15.8898 18.4322V8.26271C15.8898 7.20963 16.7435 6.35593 17.7966 6.35593Z" fill="#101010"/>
<path fill-rule="evenodd" clip-rule="evenodd" d="M77.2309 16.4137C77.5793 16.5233 77.8836 16.7411 78.0997 17.0355C78.3157 17.33 78.4322 17.6857 78.4322 18.0509V26.6314H85.2966C85.6105 26.6312 85.9184 26.7172 86.1869 26.8799C86.4553 27.0426 86.674 27.2758 86.8191 27.5542C86.9642 27.8325 87.0302 28.1454 87.0099 28.4586C86.9895 28.7719 86.8837 29.0735 86.7038 29.3308L74.6911 46.4918C74.482 46.7913 74.1828 47.0163 73.8371 47.1341C73.4913 47.2518 73.1169 47.2562 72.7685 47.1465C72.4201 47.0368 72.1158 46.8188 71.8998 46.5242C71.6839 46.2296 71.5676 45.8738 71.5678 45.5085V36.928H64.7034C64.3895 36.9281 64.0815 36.8421 63.8131 36.6794C63.5446 36.5167 63.326 36.2835 63.1809 36.0052C63.0358 35.7268 62.9698 35.414 62.9901 35.1007C63.0104 34.7875 63.1163 34.4858 63.2962 34.2285L75.3089 17.0675C75.5183 16.7686 75.8175 16.5441 76.1632 16.4269C76.5088 16.3096 76.8828 16.3056 77.2309 16.4154V16.4137Z" fill="#EDE63E"/>
</svg>
