<svg width="213" height="64" viewBox="0 0 213 64" fill="none" xmlns="http://www.w3.org/2000/svg">
<path d="M205.111 63.1111H7.88889C3.55 63.1111 0 59.5611 0 55.2222V7.88886C0 3.54997 3.55 -2.67559e-05 7.88889 -2.67559e-05H205.111C209.45 -2.67559e-05 213 3.54997 213 7.88886V55.2222C213 59.5611 209.45 63.1111 205.111 63.1111Z" fill="black"/>
<path d="M205.111 -2.67559e-05H7.88889C3.55 -2.67559e-05 0 3.54997 0 7.88886V55.2222C0 59.5611 3.55 63.1111 7.88889 63.1111H205.111C209.45 63.1111 213 59.5611 213 55.2222V7.88886C213 3.54997 209.45 -2.67559e-05 205.111 -2.67559e-05ZM205.111 1.2622C208.765 1.2622 211.738 4.23536 211.738 7.88886V55.2222C211.738 58.8763 208.765 61.8495 205.111 61.8495H7.88889C4.23539 61.8495 1.26222 58.8763 1.26222 55.2222V7.88886C1.26222 4.23536 4.23539 1.2622 7.88889 1.2622H205.111Z" fill="#A6A6A6"/>
<path d="M74.8157 16.1618C74.8157 17.4837 74.4242 18.5364 73.6402 19.3217C72.7498 20.2554 71.5891 20.7226 70.1623 20.7226C68.796 20.7226 67.6343 20.2492 66.6789 19.3013C65.7218 18.354 65.2443 17.1793 65.2443 15.7778C65.2443 14.3756 65.7218 13.2016 66.6789 12.2537C67.6343 11.3064 68.796 10.8324 70.1623 10.8324C70.8403 10.8324 71.4894 10.965 72.1057 11.2294C72.722 11.4945 73.2163 11.8463 73.5861 12.287L72.754 13.1196C72.1273 12.3708 71.2644 11.9967 70.1623 11.9967C69.1658 11.9967 68.3042 12.3468 67.577 13.0475C66.8496 13.7489 66.4861 14.6585 66.4861 15.7778C66.4861 16.8971 66.8496 17.8067 67.577 18.5082C68.3042 19.2088 69.1658 19.559 70.1623 19.559C71.2195 19.559 72.1008 19.207 72.8064 18.502C73.2644 18.0427 73.5293 17.4043 73.6002 16.5845H70.1623V15.4474H74.7497C74.7941 15.6947 74.8157 15.932 74.8157 16.1618" fill="white"/>
<path d="M74.8156 16.1618H74.6578C74.6565 17.4536 74.2793 18.4569 73.5286 19.2101L73.5268 19.2114L73.5262 19.2126C72.664 20.1142 71.5557 20.5629 70.1622 20.5648C68.8323 20.5629 67.7192 20.1093 66.7897 19.1897C65.8623 18.2683 65.4037 17.1435 65.4019 15.7778C65.4037 14.4114 65.8623 13.2873 66.7897 12.3665C67.7192 11.4463 68.8323 10.9921 70.1622 10.9902C70.8198 10.9902 71.4461 11.1185 72.0433 11.3742C72.6411 11.6319 73.1133 11.9695 73.4652 12.3887L73.586 12.287L73.4745 12.1754L72.6423 13.0086L72.7539 13.1196L72.8754 13.0186C72.2195 12.2327 71.2989 11.8365 70.1622 11.8389C69.1288 11.8376 68.2197 12.2068 67.4677 12.9342C66.7085 13.6639 66.327 14.6246 66.3282 15.7778C66.327 16.931 66.7085 17.8917 67.4677 18.6214C68.2197 19.3488 69.1288 19.718 70.1622 19.7167C71.2544 19.7186 72.1851 19.3482 72.9178 18.6135C73.4072 18.1229 73.6846 17.4432 73.7574 16.5981L73.772 16.4267H70.32V15.6052H74.7496V15.4474L74.5942 15.4752C74.6374 15.7144 74.6578 15.9417 74.6578 16.1618H74.8156H74.9734C74.9734 15.922 74.9511 15.6756 74.9049 15.4192L74.8815 15.2896H70.0045V16.5845V16.7423H73.6V16.5845L73.4429 16.571C73.3733 17.3649 73.1206 17.9627 72.6947 18.3904C72.0168 19.0659 71.1848 19.3993 70.1622 19.4012C69.2026 19.3999 68.3885 19.0695 67.6865 18.3947C66.9914 17.7223 66.6455 16.8638 66.6438 15.7778C66.6455 14.6918 66.9914 13.8334 67.6865 13.1609C68.3885 12.4861 69.2026 12.1557 70.1622 12.1544C71.2291 12.157 72.0347 12.5094 72.6332 13.2213L72.7441 13.3532L73.6976 12.3985L73.7998 12.2963L73.7067 12.1858C73.3191 11.7237 72.8026 11.3569 72.1677 11.0845C71.5317 10.8114 70.8606 10.6746 70.1622 10.6746C68.7596 10.6734 67.5491 11.1664 66.5673 12.1421C65.5818 13.1159 65.0851 14.34 65.0864 15.7778C65.0851 17.215 65.5818 18.4397 66.5679 19.4141C67.5491 20.3892 68.7596 20.8816 70.1622 20.8803C71.6229 20.8816 72.8347 20.3964 73.7542 19.4307L73.6401 19.3217L73.7517 19.4332C74.569 18.6165 74.9745 17.5134 74.9734 16.1618H74.8156Z" fill="white"/>
<path d="M82.0881 12.2075H77.777V15.209H81.6648V16.3466H77.777V19.3482H82.0881V20.5111H76.5616V11.0445H82.0881V12.2075Z" fill="white"/>
<path d="M82.0881 12.2074V12.0496H77.6192V15.3668H81.507V16.1883L77.6192 16.1888V19.5059H81.9303V20.3533H76.7194V11.2022H81.9303V12.2074H82.0881V12.0496V12.2074H82.2459V11.0444V10.8867H76.4039V20.6689H82.2459V19.3481V19.1903H77.9348V16.5043H81.8226V15.209V15.0512H77.9348V12.3652H82.2459V12.2074H82.0881" fill="white"/>
<path d="M87.2178 20.5111H86.0006V12.2075H83.3565V11.0445H89.8619V12.2075H87.2178V20.5111Z" fill="white"/>
<path d="M87.2177 20.5111V20.3533H86.1583V12.0496H83.5142V11.2022H89.704V12.0496H87.06V20.5111H87.2177V20.3533V20.5111H87.3755V12.3652H90.0196V11.0444V10.8867H83.1987V12.2074V12.3652H85.8427V20.6689H87.2177H87.3755V20.5111H87.2177" fill="white"/>
<path d="M94.5686 20.5111V11.0445H95.7846V20.5111H94.5686Z" fill="white"/>
<path d="M94.5686 20.5111H94.7264V11.2022H95.6268V20.3533H94.5686V20.5111H94.7264H94.5686V20.6689H95.7846H95.9424V10.8867H94.5686H94.4109V20.6689H94.5686V20.5111Z" fill="white"/>
<path d="M101.18 20.5111H99.9632V12.2075H97.3193V11.0445H103.825V12.2075H101.18V20.5111Z" fill="white"/>
<path d="M101.181 20.5111V20.3533H100.121V12.0496H97.4772V11.2022H103.667V12.0496H101.023V20.5111H101.181V20.3533V20.5111H101.338V12.3652H103.982V11.0444V10.8867H97.1616V12.2074V12.3652H99.8055V20.6689H101.181H101.338V20.5111H101.181" fill="white"/>
<path d="M110.096 18.4952C110.797 19.2046 111.654 19.559 112.668 19.559C113.682 19.559 114.54 19.2046 115.239 18.4952C115.941 17.7858 116.292 16.8791 116.292 15.7778C116.292 14.6765 115.941 13.7698 115.239 13.0604C114.54 12.351 113.682 11.9967 112.668 11.9967C111.654 11.9967 110.797 12.351 110.096 13.0604C109.397 13.7698 109.045 14.6765 109.045 15.7778C109.045 16.8791 109.397 17.7858 110.096 18.4952ZM116.139 19.2877C115.209 20.2448 114.051 20.7226 112.668 20.7226C111.284 20.7226 110.127 20.2448 109.198 19.2877C108.267 18.3318 107.804 17.1615 107.804 15.7778C107.804 14.3941 108.267 13.2237 109.198 12.2679C110.127 11.3106 111.284 10.8324 112.668 10.8324C114.044 10.8324 115.198 11.3132 116.133 12.274C117.067 13.2349 117.534 14.4028 117.534 15.7778C117.534 17.1615 117.068 18.3318 116.139 19.2877Z" fill="white"/>
<path d="M110.096 18.4952L109.984 18.6061C110.711 19.3439 111.617 19.7186 112.668 19.7167C113.718 19.7186 114.626 19.3439 115.352 18.6061C116.083 17.8677 116.451 16.9124 116.45 15.7778C116.451 14.6432 116.083 13.6879 115.352 12.9495C114.626 12.2117 113.718 11.837 112.668 11.8389C111.617 11.837 110.711 12.2117 109.984 12.9495C109.254 13.6879 108.886 14.6432 108.888 15.7778C108.886 16.9124 109.254 17.8677 109.984 18.6061L110.096 18.4952L110.208 18.3843C109.539 17.7032 109.204 16.8464 109.203 15.7778C109.204 14.7092 109.539 13.8524 110.208 13.1713C110.884 12.4903 111.691 12.1563 112.668 12.1544C113.645 12.1563 114.454 12.4903 115.127 13.1713C115.798 13.8524 116.132 14.7092 116.134 15.7778C116.132 16.8464 115.798 17.7032 115.127 18.3843C114.454 19.0653 113.645 19.3993 112.668 19.4012C111.691 19.3993 110.884 19.0653 110.208 18.3843L110.096 18.4952ZM116.139 19.2877L116.026 19.1781C115.122 20.105 114.015 20.5629 112.668 20.5648C111.32 20.5629 110.214 20.105 109.311 19.1781L109.307 19.1732L109.311 19.1781C108.408 18.248 107.963 17.1263 107.961 15.7778C107.963 14.4293 108.408 13.3076 109.311 12.3775C110.214 11.4506 111.32 10.9921 112.668 10.9902C114.007 10.9921 115.111 11.4525 116.02 12.3843C116.926 13.3187 117.374 14.4386 117.376 15.7778C117.374 17.1263 116.928 18.248 116.026 19.1781L116.139 19.2877L116.253 19.3974C117.209 18.4151 117.693 17.1965 117.692 15.7778C117.693 14.3671 117.207 13.1511 116.246 12.1644C115.285 11.1738 114.081 10.6729 112.668 10.6746C111.248 10.6729 110.04 11.1715 109.085 12.1582V12.1576C108.127 13.1405 107.645 14.3591 107.646 15.7778C107.645 17.1965 108.127 18.4151 109.085 19.398L109.089 19.4024L109.085 19.3974C110.04 20.3841 111.248 20.8816 112.668 20.8803C114.088 20.8816 115.295 20.3841 116.253 19.3974L116.139 19.2877" fill="white"/>
<path d="M119.241 20.5111V11.0445H120.722L125.322 18.4089H125.375L125.322 16.5845V11.0445H126.54V20.5111H125.27L120.457 12.7898H120.404L120.457 14.6148V20.5111H119.241Z" fill="white"/>
<path d="M119.241 20.5111H119.399V11.2022H120.634L125.235 18.5667H125.375H125.537L125.48 16.5821V11.2022H126.382V20.3533H125.358L120.544 12.632H120.404H120.242L120.299 14.6173V20.3533H119.241V20.5111H119.399H119.241V20.6689H120.456H120.614V14.6123L120.562 12.7855L120.404 12.7898V12.9476H120.456V12.7898L120.323 12.8737L125.182 20.6689H126.54H126.697V10.8867H125.322H125.165V16.5864L125.217 18.4131L125.375 18.4089V18.2511H125.322V18.4089L125.456 18.3251L120.809 10.8867H119.241H119.083V20.6689H119.241V20.5111Z" fill="white"/>
<path d="M168.721 47.3333H171.665V27.6092H168.721V47.3333ZM195.239 34.7143L191.864 43.2657H191.763L188.26 34.7143H185.089L190.342 46.6664L187.347 53.3147H190.419L198.513 34.7143H195.239ZM178.543 45.0931C177.577 45.0931 176.233 44.611 176.233 43.4179C176.233 41.8955 177.909 41.3119 179.354 41.3119C180.649 41.3119 181.257 41.591 182.044 41.9721C181.815 43.7988 180.242 45.0931 178.543 45.0931V45.0931ZM178.898 34.2828C176.766 34.2828 174.559 35.222 173.646 37.3028L176.258 38.3937C176.817 37.3028 177.857 36.9471 178.948 36.9471C180.471 36.9471 182.019 37.8612 182.044 39.4852V39.6879C181.511 39.3834 180.37 38.9268 178.974 38.9268C176.157 38.9268 173.289 40.4743 173.289 43.3673C173.289 46.0064 175.599 47.7068 178.186 47.7068C180.166 47.7068 181.257 46.8187 181.943 45.7784H182.044V47.3007H184.886V39.7384C184.886 36.2371 182.273 34.2828 178.898 34.2828V34.2828ZM160.703 37.1153H156.516V30.3544H160.703C162.904 30.3544 164.154 32.1767 164.154 33.7348C164.154 35.2633 162.904 37.1153 160.703 37.1153ZM160.627 27.6092H153.573V47.3333H156.516V39.8605H160.627C163.89 39.8605 167.098 37.4981 167.098 33.7348C167.098 29.9716 163.89 27.6092 160.627 27.6092ZM122.159 45.0967C120.126 45.0967 118.423 43.3938 118.423 41.0549C118.423 38.6914 120.126 36.9626 122.159 36.9626C124.168 36.9626 125.743 38.6914 125.743 41.0549C125.743 43.3938 124.168 45.0967 122.159 45.0967V45.0967ZM125.54 35.8187H125.438C124.778 35.0309 123.506 34.3192 121.905 34.3192C118.55 34.3192 115.474 37.2676 115.474 41.0549C115.474 44.8169 118.55 47.7401 121.905 47.7401C123.506 47.7401 124.778 47.0282 125.438 46.2153H125.54V47.1811C125.54 49.7488 124.168 51.1213 121.956 51.1213C120.151 51.1213 119.033 49.8245 118.575 48.7317L116.008 49.7993C116.745 51.5785 118.703 53.7647 121.956 53.7647C125.413 53.7647 128.336 51.7308 128.336 46.7743V34.726H125.54V35.8187ZM130.369 47.3333H133.318V27.6086H130.369V47.3333ZM137.665 40.8263C137.588 38.2334 139.673 36.912 141.172 36.912C142.342 36.912 143.333 37.4962 143.663 38.3357L137.665 40.8263ZM146.815 38.5896C146.257 37.0895 144.553 34.3192 141.071 34.3192C137.614 34.3192 134.742 37.039 134.742 41.0296C134.742 44.7917 137.588 47.7401 141.401 47.7401C144.477 47.7401 146.257 45.8591 146.994 44.7663L144.706 43.2409C143.944 44.3595 142.901 45.0967 141.401 45.0967C139.901 45.0967 138.834 44.4102 138.147 43.0634L147.12 39.352L146.815 38.5896ZM75.3291 36.3782V39.225H82.1412C81.9378 40.8263 81.404 41.9954 80.5905 42.8089C79.5995 43.8005 78.0489 44.8933 75.3291 44.8933C71.1349 44.8933 67.8561 41.5128 67.8561 37.3187C67.8561 33.1247 71.1349 29.7436 75.3291 29.7436C77.5915 29.7436 79.2433 30.6335 80.4635 31.7774L82.4716 29.7695C80.7687 28.1424 78.5061 26.8969 75.3291 26.8969C69.5843 26.8969 64.7549 31.574 64.7549 37.3187C64.7549 43.0634 69.5843 47.7401 75.3291 47.7401C78.4304 47.7401 80.7687 46.7238 82.5986 44.8169C84.4796 42.9359 85.0645 40.2925 85.0645 38.1576C85.0645 37.4962 85.0138 36.8867 84.9116 36.3782H75.3291ZM92.8092 45.0967C90.7752 45.0967 89.0212 43.419 89.0212 41.0296C89.0212 38.6149 90.7752 36.9626 92.8092 36.9626C94.8423 36.9626 96.5963 38.6149 96.5963 41.0296C96.5963 43.419 94.8423 45.0967 92.8092 45.0967V45.0967ZM92.8092 34.3192C89.0976 34.3192 86.0727 37.1406 86.0727 41.0296C86.0727 44.8933 89.0976 47.7401 92.8092 47.7401C96.5199 47.7401 99.5449 44.8933 99.5449 41.0296C99.5449 37.1406 96.5199 34.3192 92.8092 34.3192ZM107.503 45.0967C105.47 45.0967 103.716 43.419 103.716 41.0296C103.716 38.6149 105.47 36.9626 107.503 36.9626C109.537 36.9626 111.291 38.6149 111.291 41.0296C111.291 43.419 109.537 45.0967 107.503 45.0967ZM107.503 34.3192C103.792 34.3192 100.768 37.1406 100.768 41.0296C100.768 44.8933 103.792 47.7401 107.503 47.7401C111.214 47.7401 114.239 44.8933 114.239 41.0296C114.239 37.1406 111.214 34.3192 107.503 34.3192Z" fill="white"/>
<path d="M16.5821 51.1035L16.4648 50.9913C16.0057 50.5055 15.7346 49.7511 15.7346 48.7743V49.0042V14.1101C15.7346 14.1069 15.7346 14.1046 15.7346 14.102C15.7346 14.105 15.7346 14.1076 15.7346 14.1107V14.3412C15.7346 13.2835 16.0507 12.4867 16.5802 12.009L36.1285 31.5568L16.5821 51.1035ZM15.7346 14.1001C15.7346 14.0132 15.737 13.9288 15.7414 13.8457C15.737 13.9282 15.7346 14.0132 15.7346 14.1001ZM15.7414 13.8419C15.7414 13.8408 15.7414 13.8395 15.7419 13.8382C15.7414 13.8395 15.7414 13.8408 15.7414 13.8419ZM15.7419 13.8308C15.7419 13.8302 15.7419 13.8296 15.7419 13.8289C15.7419 13.8296 15.7419 13.8302 15.7419 13.8308Z" fill="url(#paint0_linear)"/>
<path d="M42.6436 38.3061L42.7923 38.2217L50.5122 33.8353C51.2482 33.4169 51.7387 32.9096 51.9834 32.3729C51.7394 32.9096 51.2487 33.4175 50.5122 33.8359L42.7923 38.2223L42.6436 38.3061V38.3061ZM42.6455 38.0749L36.1285 31.5568L42.6449 25.0398L50.5122 29.5093C51.5112 30.077 52.0721 30.8086 52.1658 31.5562C52.1658 31.5568 52.1658 31.5581 52.1658 31.5592C52.0721 32.305 51.5112 33.0373 50.5122 33.6048L42.6455 38.0749" fill="url(#paint1_linear)"/>
<path d="M17.9756 51.8478C17.4295 51.8478 16.953 51.6703 16.5814 51.3351L16.5821 51.3344C16.9536 51.6697 17.4308 51.8478 17.9768 51.8478C18.0242 51.8478 18.0723 51.8466 18.121 51.8442C18.0717 51.8466 18.0229 51.8478 17.9756 51.8478V51.8478ZM17.9762 51.6167C17.4301 51.6173 16.9536 51.4392 16.5821 51.1039V51.1034L36.1285 31.5568L42.6456 38.0749L19.7438 51.0873C19.1102 51.4466 18.5098 51.6167 17.9762 51.6167V51.6167ZM16.5766 51.3308C16.542 51.2994 16.5081 51.2661 16.4748 51.2316L16.5766 51.3308Z" fill="url(#paint2_linear)"/>
<path d="M36.1286 31.5569L16.5803 12.009C16.9518 11.6743 17.4277 11.4968 17.9731 11.4968C18.5081 11.4968 19.109 11.6675 19.7439 12.0274L42.645 25.0398L36.1286 31.5569V31.5569ZM42.7924 24.8926L19.7439 11.7971C19.109 11.437 18.5081 11.2663 17.9731 11.2663C17.9706 11.2663 17.9689 11.2663 17.9663 11.2663C17.9695 11.2663 17.9719 11.2663 17.9756 11.2663C18.5094 11.2663 19.1096 11.4364 19.7439 11.7964L42.7924 24.8926V24.8926Z" fill="url(#paint3_linear)"/>
<path d="M18.121 51.8442C18.6171 51.8158 19.1663 51.6451 19.7438 51.3179L42.6436 38.3061L19.7438 51.3179C19.1668 51.6457 18.6171 51.8158 18.121 51.8442V51.8442ZM16.5814 51.3351L16.5766 51.3308C16.5783 51.3321 16.5802 51.3338 16.5814 51.3351ZM16.4748 51.2316L16.4648 51.2218V51.2211C16.4686 51.2248 16.4716 51.2284 16.4748 51.2316Z" fill="black"/>
<path d="M42.6436 38.3061L42.7922 38.2217L42.6436 38.3061Z" fill="url(#paint4_linear)"/>
<path d="M17.9768 51.8478C17.4308 51.8478 16.9536 51.6697 16.5821 51.3344L16.5814 51.3351C16.5802 51.3338 16.5783 51.3321 16.5766 51.3308L16.4748 51.2316C16.4716 51.2284 16.4686 51.2248 16.4648 51.2211L16.5821 51.1039C16.9536 51.4392 17.4301 51.6173 17.9762 51.6167C18.5098 51.6167 19.1101 51.4466 19.7438 51.0873L42.6455 38.0749L42.7923 38.2217L42.6436 38.3061L19.7438 51.3179C19.1663 51.6451 18.6171 51.8158 18.121 51.8442C18.0723 51.8466 18.0242 51.8478 17.9768 51.8478" fill="url(#paint5_linear)"/>
<path d="M16.4648 51.2218C16.0057 50.736 15.7346 49.9816 15.7346 49.0048V49.0042C15.7346 49.9816 16.0057 50.7353 16.4648 51.2211V51.2218" fill="black"/>
<path d="M16.4648 51.2211C16.0057 50.7353 15.7346 49.9816 15.7346 49.0042V48.7743C15.7346 49.7511 16.0057 50.5055 16.4648 50.9912L16.5821 51.1034L16.4648 51.2211" fill="url(#paint6_linear)"/>
<path d="M16.4648 51.2211L16.5821 51.1034V51.1039L16.4648 51.2211" fill="url(#paint7_linear)"/>
<path d="M51.9835 32.3729C52.1048 32.1065 52.1659 31.833 52.1659 31.5592C52.1659 31.5587 52.1659 31.5581 52.1659 31.5581C52.1659 31.8323 52.1048 32.1059 51.9835 32.3729Z" fill="black"/>
<path d="M42.7922 38.2216L42.6455 38.0749L50.5122 33.6048C51.5112 33.0372 52.0721 32.305 52.1658 31.5592C52.1658 31.8329 52.1048 32.1065 51.9834 32.3728C51.7387 32.9096 51.2482 33.4168 50.5122 33.8353L42.7922 38.2216Z" fill="url(#paint8_linear)"/>
<path d="M52.1659 31.5569V31.5562C52.1653 30.7309 51.6137 29.9057 50.5122 29.2795L42.7923 24.8931H42.7917L42.7923 24.8926L50.5122 29.2789C51.6149 29.9051 52.1672 30.7315 52.1659 31.5569Z" fill="#404040"/>
<path d="M52.1659 31.5562C52.0721 30.8086 51.5113 30.077 50.5122 29.5093L42.6449 25.0398L42.7917 24.8931H42.7923L50.5122 29.2795C51.6136 29.9057 52.1652 30.7308 52.1659 31.5562Z" fill="url(#paint9_linear)"/>
<path d="M15.7346 14.102C15.7346 14.1014 15.7346 14.1008 15.7346 14.1001C15.7346 14.1008 15.7346 14.1014 15.7346 14.102ZM15.7414 13.8456C15.7414 13.8444 15.7414 13.8431 15.7414 13.8418C15.7414 13.8431 15.7414 13.8444 15.7414 13.8456ZM15.7419 13.8382C15.7419 13.8357 15.7419 13.8333 15.7419 13.8308C15.7419 13.8333 15.7419 13.8357 15.7419 13.8382ZM15.7419 13.8289C15.8333 12.2081 16.7146 11.2718 17.9614 11.2663C17.4208 11.2694 16.95 11.4469 16.5814 11.7791V11.7784L16.577 11.7828C16.5382 11.8179 16.5013 11.8549 16.4648 11.8931C16.0507 12.3313 15.7894 12.9876 15.7419 13.8289Z" fill="#404040"/>
<path d="M15.7346 14.3412V14.1107C15.7346 14.1076 15.7346 14.1051 15.7346 14.1021C15.7346 14.1014 15.7346 14.1008 15.7346 14.1002C15.7346 14.0132 15.737 13.9282 15.7414 13.8457C15.7414 13.8444 15.7414 13.8431 15.7414 13.8419C15.7414 13.8408 15.7414 13.8395 15.7419 13.8383C15.7419 13.8357 15.7419 13.8334 15.7419 13.8308C15.7419 13.8302 15.7419 13.8296 15.7419 13.8289C15.7894 12.9877 16.0507 12.3313 16.4648 11.8932L16.5802 12.009C16.0507 12.4867 15.7346 13.2835 15.7346 14.3412V14.3412ZM16.577 11.7829L16.5814 11.7785C16.5802 11.7804 16.5783 11.7816 16.577 11.7829Z" fill="url(#paint10_linear)"/>
<path d="M42.6449 25.0399L19.7438 12.0275C19.1089 11.6676 18.5081 11.4968 17.973 11.4968C17.4276 11.4968 16.9517 11.6743 16.5802 12.009L16.4648 11.8932C16.5013 11.855 16.5382 11.8179 16.577 11.7829C16.5783 11.7816 16.5802 11.7804 16.5814 11.7791C16.95 11.447 17.4208 11.2695 17.9614 11.2663C17.9626 11.2663 17.9644 11.2663 17.9663 11.2663C17.9688 11.2663 17.9705 11.2663 17.973 11.2663C18.5081 11.2663 19.1089 11.437 19.7438 11.7971L42.7923 24.8926L42.7916 24.8931L42.6449 25.0399Z" fill="url(#paint11_linear)"/>
<defs>
<linearGradient id="paint0_linear" x1="34.3952" y1="13.742" x2="7.91613" y2="40.2211" gradientUnits="userSpaceOnUse">
<stop stop-color="#00A0FF"/>
<stop offset="0.00657445" stop-color="#00A1FF"/>
<stop offset="0.2601" stop-color="#00BEFF"/>
<stop offset="0.5122" stop-color="#00D2FF"/>
<stop offset="0.7604" stop-color="#00DFFF"/>
<stop offset="1" stop-color="#00E3FF"/>
</linearGradient>
<linearGradient id="paint1_linear" x1="53.3831" y1="31.5578" x2="15.2056" y2="31.5578" gradientUnits="userSpaceOnUse">
<stop stop-color="#FFE000"/>
<stop offset="0.4087" stop-color="#FFBD00"/>
<stop offset="0.7754" stop-color="#FFA500"/>
<stop offset="1" stop-color="#FF9C00"/>
</linearGradient>
<linearGradient id="paint2_linear" x1="39.1714" y1="35.1783" x2="3.2639" y2="71.0858" gradientUnits="userSpaceOnUse">
<stop stop-color="#FF3A44"/>
<stop offset="1" stop-color="#C31162"/>
</linearGradient>
<linearGradient id="paint3_linear" x1="11.5135" y1="0.278042" x2="27.5477" y2="16.3122" gradientUnits="userSpaceOnUse">
<stop stop-color="#32A071"/>
<stop offset="0.0685" stop-color="#2DA771"/>
<stop offset="0.4762" stop-color="#15CF74"/>
<stop offset="0.8009" stop-color="#06E775"/>
<stop offset="1" stop-color="#00F076"/>
</linearGradient>
<linearGradient id="paint4_linear" x1="53.3829" y1="31.5577" x2="15.206" y2="31.5577" gradientUnits="userSpaceOnUse">
<stop stop-color="#CCB300"/>
<stop offset="0.4087" stop-color="#CC9700"/>
<stop offset="0.7754" stop-color="#CC8400"/>
<stop offset="1" stop-color="#CC7D00"/>
</linearGradient>
<linearGradient id="paint5_linear" x1="39.1714" y1="35.1783" x2="3.26389" y2="71.0858" gradientUnits="userSpaceOnUse">
<stop stop-color="#CC2E36"/>
<stop offset="1" stop-color="#9C0E4E"/>
</linearGradient>
<linearGradient id="paint6_linear" x1="34.3952" y1="13.7419" x2="7.91612" y2="40.221" gradientUnits="userSpaceOnUse">
<stop stop-color="#008DE0"/>
<stop offset="0.00657445" stop-color="#008DE0"/>
<stop offset="0.2601" stop-color="#00A7E0"/>
<stop offset="0.5122" stop-color="#00B8E0"/>
<stop offset="0.7604" stop-color="#00C4E0"/>
<stop offset="1" stop-color="#00C7E0"/>
</linearGradient>
<linearGradient id="paint7_linear" x1="39.1718" y1="35.1782" x2="3.26414" y2="71.0863" gradientUnits="userSpaceOnUse">
<stop stop-color="#E0333C"/>
<stop offset="1" stop-color="#AB0F56"/>
</linearGradient>
<linearGradient id="paint8_linear" x1="53.3831" y1="31.5577" x2="15.2056" y2="31.5577" gradientUnits="userSpaceOnUse">
<stop stop-color="#E0C500"/>
<stop offset="0.4087" stop-color="#E0A600"/>
<stop offset="0.7754" stop-color="#E09100"/>
<stop offset="1" stop-color="#E08900"/>
</linearGradient>
<linearGradient id="paint9_linear" x1="53.3831" y1="31.5578" x2="15.2056" y2="31.5578" gradientUnits="userSpaceOnUse">
<stop stop-color="#FFE840"/>
<stop offset="0.4087" stop-color="#FFCE40"/>
<stop offset="0.7754" stop-color="#FFBC40"/>
<stop offset="1" stop-color="#FFB540"/>
</linearGradient>
<linearGradient id="paint10_linear" x1="34.3951" y1="13.742" x2="7.91612" y2="40.221" gradientUnits="userSpaceOnUse">
<stop stop-color="#40B8FF"/>
<stop offset="0.00657445" stop-color="#40B9FF"/>
<stop offset="0.2601" stop-color="#40CEFF"/>
<stop offset="0.5122" stop-color="#40DDFF"/>
<stop offset="0.7604" stop-color="#40E7FF"/>
<stop offset="1" stop-color="#40EAFF"/>
</linearGradient>
<linearGradient id="paint11_linear" x1="11.5135" y1="0.278054" x2="27.5476" y2="16.3122" gradientUnits="userSpaceOnUse">
<stop stop-color="#65B895"/>
<stop offset="0.0685" stop-color="#62BD95"/>
<stop offset="0.4762" stop-color="#50DB97"/>
<stop offset="0.8009" stop-color="#44ED98"/>
<stop offset="1" stop-color="#40F498"/>
</linearGradient>
</defs>
</svg>
