<svg width="230" height="25" viewBox="0 0 230 25" fill="none" xmlns="http://www.w3.org/2000/svg">
<path d="M0.730164 19V17.542L1.32416 17.488C1.67216 17.452 1.84616 17.284 1.84616 16.984V8.614L0.820164 8.56V7.03H5.75216C7.51616 7.03 8.89016 7.498 9.87417 8.434C10.8702 9.37 11.3682 10.756 11.3682 12.592C11.3682 13.732 11.2182 14.728 10.9182 15.58C10.6182 16.42 10.2102 17.08 9.69416 17.56C8.66216 18.52 7.37816 19 5.84216 19H0.730164ZM4.04216 8.776V17.272H5.87816C6.91016 17.272 7.71416 16.9 8.29016 16.156C8.86616 15.412 9.15416 14.332 9.15416 12.916C9.15416 10.156 7.98416 8.776 5.64416 8.776H4.04216ZM17.2009 9.676C18.1009 9.676 18.8149 9.898 19.3429 10.342C19.8709 10.774 20.1349 11.386 20.1349 12.178C20.1349 12.706 20.0209 13.174 19.7929 13.582C19.5649 13.978 19.2829 14.29 18.9469 14.518C18.6109 14.746 18.2029 14.932 17.7229 15.076C16.9189 15.316 16.0129 15.436 15.0049 15.436C15.0409 16.072 15.2389 16.588 15.5989 16.984C15.9589 17.368 16.5109 17.56 17.2549 17.56C17.9989 17.56 18.7429 17.296 19.4869 16.768L20.1709 18.226C19.9309 18.442 19.5229 18.664 18.9469 18.892C18.3829 19.12 17.7349 19.234 17.0029 19.234C15.5389 19.234 14.4649 18.832 13.7809 18.028C13.0969 17.212 12.7549 16.096 12.7549 14.68C12.7549 13.264 13.1449 12.076 13.9249 11.116C14.7049 10.156 15.7969 9.676 17.2009 9.676ZM16.3729 13.798C16.8169 13.714 17.2249 13.54 17.5969 13.276C17.9689 13 18.1549 12.676 18.1549 12.304C18.1549 11.572 17.7949 11.206 17.0749 11.206C16.4029 11.206 15.8869 11.476 15.5269 12.016C15.1669 12.544 14.9689 13.18 14.9329 13.924C15.4609 13.912 15.9409 13.87 16.3729 13.798ZM26.8736 9.946H30.6716V11.35L30.1136 11.386C29.8736 11.41 29.7116 11.554 29.6276 11.818L27.3056 19H24.5516L22.0316 11.836C21.9716 11.668 21.9056 11.554 21.8336 11.494C21.7736 11.434 21.6656 11.398 21.5096 11.386L20.9876 11.35V9.946H25.2176V11.386L24.1196 11.44L25.9736 17.362H26.0096L27.8096 11.44L26.8736 11.386V9.946ZM35.9567 9.676C36.8567 9.676 37.5707 9.898 38.0987 10.342C38.6267 10.774 38.8907 11.386 38.8907 12.178C38.8907 12.706 38.7767 13.174 38.5487 13.582C38.3207 13.978 38.0387 14.29 37.7027 14.518C37.3667 14.746 36.9587 14.932 36.4787 15.076C35.6747 15.316 34.7687 15.436 33.7607 15.436C33.7967 16.072 33.9947 16.588 34.3547 16.984C34.7147 17.368 35.2667 17.56 36.0107 17.56C36.7547 17.56 37.4987 17.296 38.2427 16.768L38.9267 18.226C38.6867 18.442 38.2787 18.664 37.7027 18.892C37.1387 19.12 36.4907 19.234 35.7587 19.234C34.2947 19.234 33.2207 18.832 32.5367 18.028C31.8527 17.212 31.5107 16.096 31.5107 14.68C31.5107 13.264 31.9007 12.076 32.6807 11.116C33.4607 10.156 34.5527 9.676 35.9567 9.676ZM35.1287 13.798C35.5727 13.714 35.9807 13.54 36.3527 13.276C36.7247 13 36.9107 12.676 36.9107 12.304C36.9107 11.572 36.5507 11.206 35.8307 11.206C35.1587 11.206 34.6427 11.476 34.2827 12.016C33.9227 12.544 33.7247 13.18 33.6887 13.924C34.2167 13.912 34.6967 13.87 35.1287 13.798ZM43.3795 6.166V17.506L44.4055 17.56V19H40.1215V17.632L40.7155 17.578C41.0635 17.542 41.2375 17.35 41.2375 17.002V8.128C41.2375 7.864 41.0875 7.72 40.7875 7.696L40.1575 7.66V6.166H43.3795ZM49.6588 17.686C50.9668 17.686 51.6208 16.63 51.6208 14.518C51.6208 13.45 51.4708 12.64 51.1708 12.088C50.8828 11.536 50.3908 11.26 49.6948 11.26C49.0108 11.26 48.5068 11.524 48.1828 12.052C47.8588 12.58 47.6968 13.3 47.6968 14.212C47.6968 15.904 48.0088 16.966 48.6328 17.398C48.9088 17.59 49.2508 17.686 49.6588 17.686ZM45.5188 14.464C45.5188 13.576 45.6508 12.808 45.9148 12.16C46.1788 11.5 46.5328 10.996 46.9768 10.648C47.8288 10 48.7708 9.676 49.8028 9.676C50.5228 9.676 51.1288 9.796 51.6208 10.036C52.1248 10.264 52.5148 10.534 52.7908 10.846C53.0788 11.146 53.3188 11.59 53.5108 12.178C53.7148 12.754 53.8168 13.438 53.8168 14.23C53.8168 15.886 53.4148 17.14 52.6108 17.992C51.8068 18.844 50.7748 19.27 49.5148 19.27C48.2668 19.27 47.2888 18.868 46.5808 18.064C45.8728 17.248 45.5188 16.048 45.5188 14.464ZM56.0366 20.71V11.998C56.0366 11.794 56.0006 11.656 55.9286 11.584C55.8686 11.5 55.7546 11.458 55.5866 11.458L54.8306 11.404V9.946H57.8726V11.116C58.0646 10.756 58.4126 10.426 58.9166 10.126C59.4206 9.826 60.0206 9.676 60.7166 9.676C62.8886 9.676 63.9746 11.2 63.9746 14.248C63.9746 15.868 63.6206 17.11 62.9126 17.974C62.2046 18.838 61.2446 19.27 60.0326 19.27C59.3126 19.27 58.6706 19.096 58.1066 18.748V21.232L59.5646 21.304V22.726H54.9206V21.358L55.5146 21.304C55.6946 21.28 55.8266 21.226 55.9106 21.142C55.9946 21.07 56.0366 20.926 56.0366 20.71ZM61.7426 14.428C61.7426 12.424 61.1366 11.422 59.9246 11.422C59.4206 11.422 58.9886 11.578 58.6286 11.89C58.2806 12.19 58.1066 12.55 58.1066 12.97V17.11C58.5626 17.41 59.1146 17.56 59.7626 17.56C60.4226 17.56 60.9146 17.26 61.2386 16.66C61.5746 16.06 61.7426 15.316 61.7426 14.428ZM69.777 9.676C70.677 9.676 71.391 9.898 71.919 10.342C72.447 10.774 72.711 11.386 72.711 12.178C72.711 12.706 72.597 13.174 72.369 13.582C72.141 13.978 71.859 14.29 71.523 14.518C71.187 14.746 70.779 14.932 70.299 15.076C69.495 15.316 68.589 15.436 67.581 15.436C67.617 16.072 67.815 16.588 68.175 16.984C68.535 17.368 69.087 17.56 69.831 17.56C70.575 17.56 71.319 17.296 72.063 16.768L72.747 18.226C72.507 18.442 72.099 18.664 71.523 18.892C70.959 19.12 70.311 19.234 69.579 19.234C68.115 19.234 67.041 18.832 66.357 18.028C65.673 17.212 65.331 16.096 65.331 14.68C65.331 13.264 65.721 12.076 66.501 11.116C67.281 10.156 68.373 9.676 69.777 9.676ZM68.949 13.798C69.393 13.714 69.801 13.54 70.173 13.276C70.545 13 70.731 12.676 70.731 12.304C70.731 11.572 70.371 11.206 69.651 11.206C68.979 11.206 68.463 11.476 68.103 12.016C67.743 12.544 67.545 13.18 67.509 13.924C68.037 13.912 68.517 13.87 68.949 13.798ZM78.4958 9.676C79.0118 9.676 79.5038 9.748 79.9718 9.892V8.074C79.9718 7.81 79.8158 7.666 79.5038 7.642L78.7298 7.588V6.166H82.0778V17.11C82.0898 17.386 82.2398 17.524 82.5278 17.524L83.1578 17.56V19H80.2418V17.938L80.1878 17.92C79.6478 18.796 78.8318 19.234 77.7398 19.234C76.3718 19.234 75.4118 18.778 74.8598 17.866C74.3558 17.038 74.1038 16.024 74.1038 14.824C74.1038 13.264 74.4878 12.016 75.2558 11.08C76.0358 10.144 77.1158 9.676 78.4958 9.676ZM79.9718 16.192V11.53C79.5398 11.338 79.0838 11.242 78.6038 11.242C77.8118 11.242 77.2298 11.56 76.8578 12.196C76.4978 12.832 76.3178 13.642 76.3178 14.626C76.3178 16.642 76.9658 17.65 78.2618 17.65C78.7538 17.65 79.1618 17.512 79.4858 17.236C79.8098 16.948 79.9718 16.6 79.9718 16.192ZM93.7698 10.306H95.5158L97.3878 17.002H97.4238L98.6478 11.44L97.7298 11.386V9.946H101.348V11.332L100.754 11.368C100.514 11.392 100.352 11.536 100.268 11.8L98.5578 19H95.9658L94.4898 13.636H94.4358L92.9058 19H90.2598L88.4418 11.818C88.3818 11.65 88.3158 11.536 88.2438 11.476C88.1838 11.416 88.0758 11.38 87.9198 11.368L87.3978 11.332V9.946H91.5198V11.386L90.5118 11.44L91.7538 16.966H91.7898L93.7698 10.306ZM105.378 9.946V17.506L106.404 17.56V19H102.12V17.632L102.714 17.578C103.062 17.542 103.236 17.35 103.236 17.002V11.998C103.236 11.794 103.2 11.656 103.128 11.584C103.068 11.512 102.954 11.476 102.786 11.476L102.156 11.44V9.946H105.378ZM103.11 8.398C102.858 8.146 102.732 7.828 102.732 7.444C102.732 7.06 102.858 6.742 103.11 6.49C103.362 6.226 103.692 6.094 104.1 6.094C104.508 6.094 104.838 6.226 105.09 6.49C105.354 6.742 105.486 7.06 105.486 7.444C105.486 7.828 105.354 8.146 105.09 8.398C104.838 8.638 104.508 8.758 104.1 8.758C103.692 8.758 103.362 8.638 103.11 8.398ZM109.445 8.038H110.615V9.946H113.009L112.829 11.458H110.615V16.192C110.615 16.72 110.711 17.092 110.903 17.308C111.095 17.512 111.389 17.614 111.785 17.614C112.193 17.614 112.601 17.488 113.009 17.236L113.549 18.622C112.949 19.042 112.187 19.252 111.263 19.252C110.723 19.252 110.267 19.18 109.895 19.036C109.523 18.904 109.247 18.754 109.067 18.586C108.887 18.418 108.749 18.172 108.653 17.848C108.557 17.524 108.503 17.272 108.491 17.092C108.479 16.9 108.473 16.624 108.473 16.264V11.458H107.195L107.375 10.144C107.939 10.096 108.365 9.898 108.653 9.55C108.941 9.19 109.205 8.686 109.445 8.038ZM115.33 16.984V8.218C115.33 8.026 115.294 7.894 115.222 7.822C115.162 7.75 115.048 7.708 114.88 7.696L114.25 7.66V6.166H117.454V11.008C118.078 10.12 118.954 9.676 120.082 9.676C120.994 9.676 121.696 9.94 122.188 10.468C122.692 10.984 122.944 11.764 122.944 12.808V17.506L123.97 17.56V19H119.686V17.632L120.28 17.578C120.46 17.554 120.592 17.506 120.676 17.434C120.76 17.35 120.802 17.2 120.802 16.984V13.276C120.802 12.652 120.7 12.172 120.496 11.836C120.304 11.5 119.92 11.332 119.344 11.332C118.78 11.332 118.324 11.512 117.976 11.872C117.64 12.22 117.472 12.646 117.472 13.15V17.506L118.498 17.56V19H114.214V17.632L114.808 17.578C114.988 17.554 115.12 17.506 115.204 17.434C115.288 17.35 115.33 17.2 115.33 16.984ZM128.52 11.404V9.946H131.562V11.116C132.234 10.156 133.152 9.676 134.316 9.676C135.492 9.676 136.284 10.156 136.692 11.116C137.364 10.156 138.276 9.676 139.428 9.676C140.292 9.676 140.958 9.94 141.426 10.468C141.894 10.984 142.128 11.764 142.128 12.808V17.506L143.154 17.56V19H138.87V17.632L139.464 17.578C139.644 17.554 139.77 17.506 139.842 17.434C139.926 17.35 139.974 17.206 139.986 17.002V13.276C139.986 12.616 139.908 12.13 139.752 11.818C139.608 11.494 139.26 11.332 138.708 11.332C138.156 11.332 137.73 11.5 137.43 11.836C137.142 12.172 136.998 12.622 136.998 13.186V17.506L137.988 17.56V19H133.74V17.632L134.334 17.578C134.514 17.554 134.646 17.506 134.73 17.434C134.814 17.35 134.856 17.2 134.856 16.984V13.276C134.856 12.616 134.778 12.13 134.622 11.818C134.478 11.494 134.124 11.332 133.56 11.332C133.008 11.332 132.588 11.506 132.3 11.854C132.012 12.202 131.868 12.634 131.868 13.15V17.506L132.84 17.56V19H128.592V17.632L129.186 17.578C129.366 17.554 129.498 17.506 129.582 17.434C129.666 17.35 129.708 17.2 129.708 16.984H129.726V12.016C129.726 11.812 129.69 11.674 129.618 11.602C129.558 11.518 129.444 11.47 129.276 11.458L128.52 11.404ZM153.76 17.578V19H150.844V17.83C150.184 18.766 149.212 19.234 147.928 19.234C146.068 19.234 145.138 18.196 145.138 16.12V11.962C145.138 11.638 144.988 11.47 144.688 11.458L144.112 11.422V9.946H147.28V15.652C147.28 16.288 147.37 16.768 147.55 17.092C147.73 17.416 148.102 17.578 148.666 17.578C149.23 17.578 149.68 17.404 150.016 17.056C150.364 16.708 150.538 16.288 150.538 15.796V11.998C150.538 11.806 150.502 11.674 150.43 11.602C150.37 11.518 150.256 11.47 150.088 11.458L149.512 11.422V9.946H152.68V17.002C152.68 17.194 152.71 17.326 152.77 17.398C152.83 17.458 152.95 17.5 153.13 17.524L153.76 17.578ZM157.033 14.374C157.033 15.394 157.225 16.186 157.609 16.75C157.993 17.314 158.545 17.596 159.265 17.596C159.997 17.596 160.717 17.338 161.425 16.822L162.199 18.208C161.347 18.904 160.279 19.252 158.995 19.252C157.711 19.252 156.697 18.85 155.953 18.046C155.221 17.23 154.855 16.03 154.855 14.446C154.855 12.862 155.275 11.674 156.115 10.882C156.967 10.078 157.921 9.676 158.977 9.676C160.045 9.676 161.035 9.922 161.947 10.414V12.754L160.291 12.88V12.016C160.291 11.692 160.171 11.494 159.931 11.422C159.703 11.338 159.463 11.296 159.211 11.296C157.759 11.296 157.033 12.322 157.033 14.374ZM164.425 16.984V8.218C164.425 8.026 164.389 7.894 164.317 7.822C164.257 7.75 164.143 7.708 163.975 7.696L163.345 7.66V6.166H166.549V11.008C167.173 10.12 168.049 9.676 169.177 9.676C170.089 9.676 170.791 9.94 171.283 10.468C171.787 10.984 172.039 11.764 172.039 12.808V17.506L173.065 17.56V19H168.781V17.632L169.375 17.578C169.555 17.554 169.687 17.506 169.771 17.434C169.855 17.35 169.897 17.2 169.897 16.984V13.276C169.897 12.652 169.795 12.172 169.591 11.836C169.399 11.5 169.015 11.332 168.439 11.332C167.875 11.332 167.419 11.512 167.071 11.872C166.735 12.22 166.567 12.646 166.567 13.15V17.506L167.593 17.56V19H163.309V17.632L163.903 17.578C164.083 17.554 164.215 17.506 164.299 17.434C164.383 17.35 164.425 17.2 164.425 16.984ZM210.948 18.46V8.128C210.948 7.852 210.798 7.708 210.498 7.696L209.868 7.66V6.166H213.036V10.432C213.576 9.928 214.302 9.676 215.214 9.676C216.342 9.676 217.236 10.06 217.896 10.828C218.556 11.584 218.886 12.652 218.886 14.032C218.886 17.5 217.434 19.234 214.53 19.234C213.906 19.234 213.246 19.156 212.55 19C211.866 18.856 211.332 18.676 210.948 18.46ZM213.036 12.628V17.29C213.492 17.53 214.02 17.65 214.62 17.65C215.988 17.65 216.672 16.54 216.672 14.32C216.672 12.292 216 11.278 214.656 11.278C214.224 11.278 213.846 11.404 213.522 11.656C213.198 11.908 213.036 12.232 213.036 12.628ZM226.781 18.658V17.29C226.121 18.226 225.149 18.694 223.865 18.694C222.005 18.694 221.075 17.656 221.075 15.58V11.962C221.075 11.638 220.925 11.47 220.625 11.458L220.049 11.422V9.946H223.217V15.112C223.217 15.748 223.307 16.228 223.487 16.552C223.667 16.876 224.039 17.038 224.603 17.038C225.167 17.038 225.617 16.864 225.953 16.516C226.301 16.168 226.475 15.748 226.475 15.256V11.998C226.475 11.794 226.439 11.656 226.367 11.584C226.307 11.5 226.193 11.458 226.025 11.458L225.449 11.422V9.946H228.617V18.658C228.617 20.11 228.263 21.172 227.555 21.844C226.859 22.516 225.797 22.852 224.369 22.852C222.953 22.852 221.849 22.654 221.057 22.258V19.756L222.767 19.612V20.476C222.767 20.8 222.917 21.016 223.217 21.124C223.517 21.244 223.931 21.304 224.459 21.304C226.007 21.304 226.781 20.422 226.781 18.658Z" fill="black"/>
<path fill-rule="evenodd" clip-rule="evenodd" d="M182.965 6.46501C183.903 5.52765 185.174 5.00108 186.5 5.00108C187.826 5.00108 189.097 5.52765 190.035 6.46501L191.5 7.92876L192.965 6.46501C193.426 5.98746 193.978 5.60655 194.588 5.3445C195.198 5.08246 195.854 4.94453 196.518 4.93876C197.182 4.93299 197.84 5.0595 198.455 5.3109C199.069 5.56231 199.628 5.93357 200.097 6.40303C200.566 6.8725 200.938 7.43076 201.189 8.04524C201.441 8.65972 201.567 9.31812 201.561 9.98202C201.555 10.6459 201.418 11.302 201.156 11.912C200.893 12.5221 200.513 13.0738 200.035 13.535L191.5 22.0713L182.965 13.535C182.028 12.5974 181.501 11.3258 181.501 10C181.501 8.67419 182.028 7.40265 182.965 6.46501Z" fill="#6FD786"/>
</svg>
